<svg id="svg" version="1.1" xmlns="http://www.w3.org/2000/svg" xmlns:xlink="http://www.w3.org/1999/xlink" width="400" height="343.12796208530807" viewBox="0, 0, 400,343.12796208530807"><g id="svgg"><path id="path0" d="M30.023 184.067 C 29.660 184.654,30.805 185.642,31.288 185.159 C 31.503 184.943,31.586 184.525,31.473 184.229 C 31.235 183.610,30.365 183.513,30.023 184.067 M29.221 186.713 C 28.760 187.575,29.600 188.892,30.221 188.280 C 30.704 187.804,30.539 186.370,29.980 186.186 C 29.757 186.113,29.415 186.350,29.221 186.713 M28.155 192.410 C 28.155 193.641,28.823 194.215,29.486 193.553 C 30.268 192.771,29.955 191.245,29.013 191.245 C 28.266 191.245,28.155 191.396,28.155 192.410 M120.223 210.582 C 119.894 210.978,119.926 211.123,120.384 211.298 C 121.133 211.586,121.341 211.346,120.950 210.648 C 120.677 210.161,120.580 210.152,120.223 210.582 " stroke="none" fill="#fcfcfc" fill-rule="evenodd"></path><path id="path1" d="" stroke="none" fill="#100fcfc" fill-rule="evenodd"></path><path id="path2" d="" stroke="none" fill="#100fcfc" fill-rule="evenodd"></path><path id="path3" d="" stroke="none" fill="#100fcfc" fill-rule="evenodd"></path><path id="path4" d="" stroke="none" fill="#100fcfc" fill-rule="evenodd"></path></g></svg>