<?xml version="1.0" standalone="no"?>
<!DOCTYPE svg PUBLIC "-//W3C//DTD SVG 20010904//EN"
 "http://www.w3.org/TR/2001/REC-SVG-20010904/DTD/svg10.dtd">
<svg version="1.0" xmlns="http://www.w3.org/2000/svg"
 width="422.000000pt" height="362.000000pt" viewBox="0 0 422.000000 362.000000"
 preserveAspectRatio="xMidYMid meet">

<g transform="translate(0.000000,362.000000) scale(0.100000,-0.100000)"
fill="#000000" stroke="none">
<path d="M0 1810 l0 -1810 2110 0 2110 0 0 1810 0 1810 -2110 0 -2110 0 0
-1810z m2487 1696 c106 -23 162 -40 356 -112 52 -19 107 -48 197 -102 284
-171 511 -422 661 -731 52 -108 114 -280 125 -351 5 -33 16 -46 60 -80 74 -56
122 -153 131 -265 11 -147 -29 -265 -123 -365 -35 -37 -64 -74 -64 -82 0 -8
-16 -66 -36 -129 -205 -649 -770 -1118 -1447 -1200 -154 -18 -435 -7 -577 24
-513 112 -937 433 -1175 888 -30 59 -67 137 -81 175 -16 43 -41 85 -68 114
-58 63 -83 106 -102 181 -22 86 -14 162 25 244 28 58 31 72 31 163 0 112 27
285 64 412 178 610 669 1073 1287 1210 149 33 215 39 419 35 161 -3 216 -8
317 -29z"/>
<path d="M2455 3029 c-85 -14 -233 -67 -360 -129 -306 -149 -605 -402 -605
-512 0 -81 63 -99 165 -48 33 17 52 28 42 25 -56 -16 -65 -16 -81 0 -53 53 22
160 232 329 237 190 454 287 647 287 97 0 133 -10 190 -53 46 -34 75 -90 75
-142 0 -36 -29 -134 -49 -166 -57 -92 -216 -240 -411 -384 -52 -38 -116 -88
-141 -112 -99 -91 -144 -89 -144 5 0 28 -3 51 -7 51 -5 0 -8 -1 -8 -2 0 -2 -9
-70 -21 -153 -11 -82 -23 -185 -27 -228 l-8 -78 25 3 c22 3 27 12 47 97 24 97
41 126 84 143 36 15 146 11 178 -6 41 -22 90 -73 111 -114 20 -40 40 -181 38
-277 -1 -71 23 -148 63 -204 36 -49 197 -141 248 -141 28 0 32 3 24 17 -5 9
-43 41 -83 73 -115 88 -127 110 -139 260 -11 144 -35 234 -90 335 -21 39 -51
95 -68 126 l-30 56 20 34 c11 19 73 86 137 149 133 130 186 201 262 348 49 95
54 110 57 181 3 64 0 85 -17 118 -23 46 -70 89 -118 110 -36 14 -158 16 -238
2z"/>
<path d="M3555 2146 c-49 -13 -119 -30 -155 -39 -36 -8 -106 -31 -155 -50 -50
-18 -178 -64 -285 -101 -107 -38 -240 -84 -296 -103 l-100 -36 18 -36 18 -37
153 49 c158 51 358 119 487 167 131 48 208 64 315 64 122 0 180 -21 219 -81
33 -51 40 -99 26 -169 -30 -147 -133 -253 -327 -338 -45 -20 -116 -44 -159
-55 -87 -21 -213 -66 -229 -82 -7 -7 -2 -17 15 -31 23 -19 34 -20 140 -15 118
6 246 38 364 90 65 29 252 164 242 174 -3 3 4 15 16 27 73 77 134 219 123 289
-8 57 -38 157 -47 157 -5 0 -8 6 -8 13 0 29 -61 96 -115 127 -75 43 -140 47
-260 16z"/>
<path d="M1007 2110 c-201 -53 -426 -188 -543 -326 -50 -58 -84 -154 -84 -237
0 -94 65 -224 135 -267 72 -45 292 -63 425 -36 177 36 357 81 470 116 69 21
228 68 355 105 185 54 381 121 588 200 10 5 17 18 17 35 0 51 -18 52 -120 11
-211 -85 -858 -292 -917 -294 -7 0 -13 -5 -13 -10 0 -5 -6 -7 -13 -4 -7 2 -82
-5 -167 -17 -118 -17 -201 -22 -350 -21 -184 0 -198 1 -240 23 -110 57 -149
140 -115 243 36 110 102 177 268 272 137 80 168 95 275 133 104 38 149 61 156
81 7 18 -43 15 -127 -7z"/>
</g>
</svg>
